<svg xmlns="http://www.w3.org/2000/svg" xmlns:xlink="http://www.w3.org/1999/xlink" version="1.1" x="0px" y="0px" viewBox="0 0 100 100" enable-background="new 0 0 100 100" xml:space="preserve"><path d="M93.182,40.267c-4.179-15.261-16.062-14.94-16.062-14.94c-2.141-8.14-4.926-6.64-4.926-6.64  c-3.051,3.267-2.944,7.604-2.944,7.604c-8.19,3.856-7.711,13.494-7.711,13.494c-7.003-0.124-13.729,5.844-18.116,10.833  c16.583-24.026,3.442-35.572,3.442-35.572c-19.92-19.92-44.816-1.414-39.999,7.55c2.816,5.242,18.798-0.74,20.508,7.039  c1.232,5.607-3.743,11.64-6.685,15.836c-6.061,8.644-17.39,18.998-12.401,30.738c2.981,7.012,10.521,12.189,17.027,15.673  c1.333,0.718,3.508,2.197,5.111,2.197c0.01,0,41.554,0,41.554,0c7.067-8.353-10.279-5.783-10.279-5.783  c8.779-9.209,4.979-20.239,4.979-20.239c10.924,4.928,14.674-2.035,14.674-2.035c3.854-5.566,5.617-3.106,7.973-4.395  c2.357-1.284,2.039-2.423,2.093-5.298c0.089-4.627-9.293,2.241-11.728-0.472c-5.569-6.211-2.57-7.613-2.57-7.613  c9.374,1.551,13.71-1.714,13.71-1.714c0-1.5,2.771-1.429,2.996-2.356C94.307,42.194,93.182,40.267,93.182,40.267z"></path></svg>